<svg width="25" height="24" viewBox="0 0 25 24" fill="none" xmlns="http://www.w3.org/2000/svg">
<g clip-path="url(#clip0_0_2907)">
<path d="M1.5 5L21.5 5M13.7222 10.875L15.9444 13.125L13.7222 15.375M9.27778 15.375L7.05556 13.125L9.27778 10.875M1.5 17.4V6.60001C1.5 5.3399 1.5 4.70985 1.74221 4.22855C1.95526 3.80518 2.29497 3.46095 2.71311 3.24524C3.18847 3 3.81121 3 5.05577 3H17.9447C19.1892 3 19.8111 3 20.2864 3.24524C20.7046 3.46095 21.045 3.80518 21.258 4.22855C21.5002 4.70985 21.5 5.3399 21.5 6.60001V17.4C21.5 18.6601 21.5002 19.2902 21.258 19.7715C21.045 20.1948 20.7046 20.5391 20.2864 20.7548C19.8111 21 19.1892 21 17.9447 21L5.05577 21C3.81121 21 3.18847 21 2.71311 20.7548C2.29497 20.5391 1.95526 20.1948 1.74221 19.7715C1.5 19.2902 1.5 18.6601 1.5 17.4Z" stroke="#F9B018" stroke-width="2" stroke-linecap="round" stroke-linejoin="round"/>
</g>
<defs>
<clipPath id="clip0_0_2907">
<rect width="24" height="24" fill="white" transform="translate(0.5)"/>
</clipPath>
</defs>
</svg>
