<svg width="21" height="14" viewBox="0 0 21 14" fill="none" xmlns="http://www.w3.org/2000/svg">
<path fill-rule="evenodd" clip-rule="evenodd" d="M10.5 0.25C6.41882 0.25 2.86847 2.51686 1.04256 5.85557C0.652487 6.56882 0.65248 7.43102 1.04254 8.14428C2.86843 11.4831 6.41882 13.75 10.5 13.75C14.5812 13.75 18.1315 11.4831 19.9574 8.14443C20.3475 7.43118 20.3475 6.56898 19.9575 5.85572C18.1316 2.51694 14.5812 0.25 10.5 0.25ZM10.5 4.75C9.25736 4.75 8.25 5.75736 8.25 7C8.25 8.24264 9.25736 9.25 10.5 9.25C11.1805 9.25 11.7904 8.94794 12.2029 8.47059C11.5168 8.33275 11 7.72673 11 7C11 6.27327 11.5168 5.66725 12.2029 5.52941C11.7904 5.05206 11.1805 4.75 10.5 4.75ZM6.75 7C6.75 4.92893 8.42893 3.25 10.5 3.25C12.5711 3.25 14.25 4.92893 14.25 7C14.25 9.07107 12.5711 10.75 10.5 10.75C8.42893 10.75 6.75 9.07107 6.75 7Z" fill="#0A85D1"/>
</svg>
