<svg width="17" height="20" viewBox="0 0 17 20" fill="none" xmlns="http://www.w3.org/2000/svg">
<path fill-rule="evenodd" clip-rule="evenodd" d="M1.01436 4.15829C0.696892 4.33466 0.5 4.66928 0.5 5.03244V9.67112C0.5 13.3028 2.46892 16.649 5.64357 18.4127L8.01436 19.7298C8.31638 19.8976 8.68362 19.8976 8.98564 19.7298L11.3564 18.4127C14.5311 16.649 16.5 13.3028 16.5 9.67112V5.03244C16.5 4.66928 16.3031 4.33466 15.9856 4.15829L8.98564 0.269397C8.68362 0.101607 8.31638 0.101607 8.01436 0.269397L1.01436 4.15829ZM7.46967 12.5299C7.76256 12.8228 8.23743 12.8228 8.53033 12.5299L12.5303 8.52993C12.8232 8.23703 12.8232 7.76216 12.5303 7.46927C12.2374 7.17637 11.7626 7.17637 11.4697 7.46926L8 10.9389L6.53033 9.46927C6.23744 9.17637 5.76256 9.17637 5.46967 9.46927C5.17678 9.76216 5.17678 10.237 5.46967 10.5299L7.46967 12.5299Z" fill="#0A85D1"/>
</svg>
