<svg width="32" height="32" viewBox="0 0 32 32" fill="none" xmlns="http://www.w3.org/2000/svg">
    <path d="M0 5C0 2.23858 2.23858 0 5 0H27C29.7614 0 32 2.23858 32 5V27C32 29.7614 29.7614 32 27 32H5C2.23858 32 0 29.7614 0 27V5Z" fill="#E2EEF7"/>
    <path fill-rule="evenodd" clip-rule="evenodd" d="M8 10.4287C6.89543 10.4287 6 11.3241 6 12.4287V14.0835C6 14.9667 6.57934 15.7453 7.42531 15.9991L14.8506 18.2267C15.6004 18.4516 16.3996 18.4516 17.1494 18.2267L24.5747 15.9991C25.4207 15.7453 26 14.9667 26 14.0835V12.4287C26 11.3241 25.1046 10.4287 24 10.4287H8ZM16.75 13.8574C16.75 13.4432 16.4142 13.1074 16 13.1074C15.5858 13.1074 15.25 13.4432 15.25 13.8574V15.5717C15.25 15.9859 15.5858 16.3217 16 16.3217C16.4142 16.3217 16.75 15.9859 16.75 15.5717V13.8574Z" fill="#0A85D1"/>
    <path fill-rule="evenodd" clip-rule="evenodd" d="M6.08203 17.0128V21.0001C6.08203 23.6235 8.20868 25.7501 10.832 25.7501H21.1654C23.7887 25.7501 25.9154 23.6235 25.9154 21.0001V17.0126C25.6387 17.1937 25.333 17.3376 25.0042 17.4362L17.5789 19.6638C16.548 19.973 15.449 19.973 14.4181 19.6638L6.99282 17.4362C6.66425 17.3376 6.35865 17.1938 6.08203 17.0128ZM6.14364 14.832L15.9987 16.5003L25.8534 14.8321C25.6309 15.3832 25.1679 15.821 24.5732 15.9994L17.1479 18.227C16.3982 18.4519 15.5989 18.4519 14.8491 18.227L7.42384 15.9994C6.82912 15.821 6.36617 15.3832 6.14364 14.832ZM15.998 18.0002L15.9986 18.0003L15.9985 18.0003L15.998 18.0002Z" fill="#0A85D1"/>
    <path d="M19.3346 10.4286V9C19.3346 7.89543 18.4392 7 17.3346 7H14.668C13.5634 7 12.668 7.89543 12.668 9L12.668 10.4286" stroke="#0A85D1" stroke-width="1.5"/>
</svg>
