<svg width="32" height="32" viewBox="0 0 32 32" fill="none" xmlns="http://www.w3.org/2000/svg">
    <path d="M0 5C0 2.23858 2.23858 0 5 0H27C29.7614 0 32 2.23858 32 5V27C32 29.7614 29.7614 32 27 32H5C2.23858 32 0 29.7614 0 27V5Z" fill="#E2EEF7"/>
    <path d="M18.7411 7.66587L17.3845 6.50977C16.5869 5.83008 15.4132 5.83008 14.6157 6.50977L13.2592 7.6659C12.9174 7.95717 12.4919 8.13324 12.0443 8.16897L10.2685 8.3107C9.22395 8.39406 8.3941 9.22357 8.31074 10.2682L8.16849 12.045C8.13277 12.4926 7.95726 12.9175 7.66599 13.2593L6.50967 14.6159C5.82997 15.4135 5.83018 16.5866 6.50988 17.3841L7.66548 18.7407C7.95675 19.0825 8.13323 19.5074 8.16895 19.9551L8.3111 21.7319C8.39446 22.7764 9.22289 23.606 10.2675 23.6893L12.0448 23.8311C12.4925 23.8668 12.9172 24.0429 13.259 24.3341L14.6154 25.4902C15.413 26.1699 16.5869 26.1699 17.3845 25.4902L18.7408 24.3341C19.0826 24.0428 19.5074 23.8668 19.955 23.8311L21.7324 23.6893C22.777 23.6059 23.6054 22.7764 23.6888 21.7318L23.8309 19.9551C23.8666 19.5075 24.0431 19.0825 24.3344 18.7408L25.49 17.3841C26.1697 16.5865 26.1702 15.4135 25.4905 14.6159L24.3339 13.2593C24.0426 12.9175 23.8663 12.4926 23.8305 12.0449L23.6898 10.2681C23.6065 9.22355 22.7764 8.39411 21.7318 8.31075L19.9552 8.16891C19.5076 8.13319 19.0829 7.95713 18.7411 7.66587Z" fill="#0A85D1"/>
    <path d="M19.3333 13.7778L14.8888 18.2222L12.6666 16M17.3845 6.50977L18.7411 7.66587C19.0829 7.95713 19.5076 8.13319 19.9552 8.16891L21.7318 8.31075C22.7764 8.39411 23.6065 9.22355 23.6898 10.2681L23.8305 12.0449C23.8663 12.4926 24.0426 12.9175 24.3339 13.2593L25.4905 14.6159C26.1702 15.4135 26.1697 16.5865 25.49 17.3841L24.3344 18.7408C24.0431 19.0825 23.8666 19.5075 23.8309 19.9551L23.6888 21.7318C23.6054 22.7764 22.777 23.6059 21.7324 23.6893L19.955 23.8311C19.5074 23.8668 19.0826 24.0428 18.7408 24.3341L17.3845 25.4902C16.5869 26.1699 15.413 26.1699 14.6154 25.4902L13.259 24.3341C12.9172 24.0429 12.4925 23.8668 12.0448 23.8311L10.2675 23.6893C9.22289 23.606 8.39446 22.7764 8.3111 21.7319L8.16895 19.9551C8.13323 19.5074 7.95675 19.0825 7.66548 18.7407L6.50988 17.3841C5.83018 16.5866 5.82997 15.4134 6.50967 14.6159L7.66599 13.2593C7.95726 12.9175 8.13277 12.4926 8.16849 12.0449L8.31074 10.2682C8.3941 9.22357 9.22395 8.39406 10.2685 8.3107L12.0443 8.16897C12.4919 8.13324 12.9174 7.95717 13.2592 7.6659L14.6157 6.50977C15.4132 5.83008 16.5869 5.83008 17.3845 6.50977Z" stroke="#0A85D1" stroke-width="2" stroke-linecap="round" stroke-linejoin="round"/>
    <path d="M19.6667 14L15.2222 19L13 16.5" stroke="white" stroke-width="2" stroke-linecap="round" stroke-linejoin="round"/>
</svg>
