<svg width="32" height="32" viewBox="0 0 32 32" fill="none" xmlns="http://www.w3.org/2000/svg">
    <path d="M0 5C0 2.23858 2.23858 0 5 0H27C29.7614 0 32 2.23858 32 5V27C32 29.7614 29.7614 32 27 32H5C2.23858 32 0 29.7614 0 27V5Z" fill="#E2EEF7"/>
    <path d="M9 9.06048C9 9.0148 9.02346 8.85193 9.33434 8.58943C9.64112 8.33039 10.1374 8.05732 10.8279 7.8107C12.2013 7.3202 14.1567 7 16.3589 7C18.561 7 20.5164 7.3202 21.8898 7.8107C22.5803 8.05732 23.0766 8.33039 23.3834 8.58943C23.6943 8.85193 23.7177 9.0148 23.7177 9.06048C23.7177 9.10616 23.6943 9.26904 23.3834 9.53154C23.0766 9.79058 22.5803 10.0636 21.8898 10.3103C20.5164 10.8008 18.561 11.121 16.3589 11.121C14.1567 11.121 12.2013 10.8008 10.8279 10.3103C10.1374 10.0636 9.64112 9.79058 9.33434 9.53154C9.02346 9.26904 9 9.10616 9 9.06048Z" fill="#0A85D1"/>
    <path d="M22.4838 11.9735C22.7919 11.8635 23.0866 11.7423 23.3627 11.6096C23.5244 11.5318 23.7177 11.6466 23.7177 11.826V13.7702C23.7177 13.8158 23.6943 13.9787 23.3834 14.2412C23.0766 14.5003 22.5803 14.7733 21.8898 15.0199C20.5164 15.5104 18.561 15.8306 16.3589 15.8306C14.1567 15.8306 12.2013 15.5104 10.8279 15.0199C10.1374 14.7733 9.64112 14.5003 9.33434 14.2412C9.02346 13.9787 9 13.8158 9 13.7702V11.826C9 11.6466 9.19339 11.5318 9.35507 11.6096C9.63114 11.7423 9.92586 11.8635 10.2339 11.9735C11.8435 12.5484 14.0091 12.8871 16.3589 12.8871C18.7086 12.8871 20.8742 12.5484 22.4838 11.9735Z" fill="#0A85D1"/>
    <path d="M22.4838 16.6832C22.7919 16.5732 23.0866 16.452 23.3627 16.3192C23.5244 16.2415 23.7177 16.3563 23.7177 16.5357V18.4798C23.7177 18.5255 23.6943 18.6884 23.3834 18.9509C23.0766 19.2099 22.5803 19.483 21.8898 19.7296C20.5164 20.2201 18.561 20.5403 16.3589 20.5403C14.1567 20.5403 12.2013 20.2201 10.8279 19.7296C10.1374 19.483 9.64112 19.2099 9.33434 18.9509C9.02346 18.6884 9 18.5255 9 18.4798V16.5357C9 16.3563 9.19339 16.2415 9.35507 16.3192C9.63114 16.452 9.92586 16.5732 10.2339 16.6832C11.8435 17.258 14.0091 17.5968 16.3589 17.5968C18.7086 17.5968 20.8742 17.258 22.4838 16.6832Z" fill="#0A85D1"/>
    <path d="M22.4838 21.3929C22.7919 21.2828 23.0866 21.1617 23.3627 21.0289C23.5244 20.9512 23.7177 21.066 23.7177 21.2454V23.1895C23.7177 23.2352 23.6943 23.3981 23.3834 23.6606C23.0766 23.9196 22.5803 24.1927 21.8898 24.4393C20.5164 24.9298 18.561 25.25 16.3589 25.25C14.1567 25.25 12.2013 24.9298 10.8279 24.4393C10.1374 24.1927 9.64112 23.9196 9.33434 23.6606C9.02346 23.3981 9 23.2352 9 23.1895V21.2454C9 21.066 9.19339 20.9512 9.35507 21.0289C9.63114 21.1617 9.92586 21.2828 10.2339 21.3929C11.8435 21.9677 14.0091 22.3065 16.3589 22.3065C18.7086 22.3065 20.8742 21.9677 22.4838 21.3929Z" fill="#0A85D1"/>
</svg>
