<svg width="32" height="32" viewBox="0 0 32 32" fill="none" xmlns="http://www.w3.org/2000/svg">
    <path d="M0 5C0 2.23858 2.23858 0 5 0H27C29.7614 0 32 2.23858 32 5V27C32 29.7614 29.7614 32 27 32H5C2.23858 32 0 29.7614 0 27V5Z" fill="#E2EEF7"/>
    <path fill-rule="evenodd" clip-rule="evenodd" d="M23.3916 5.56031C24.9436 5.35732 26.2234 6.63713 26.0204 8.18919C25.7287 10.4196 24.9271 14.2185 22.6537 16.6697C21.9367 17.4427 21.0722 18.1571 20.1826 18.7925L20.4405 20.5978C20.516 21.1259 20.3384 21.6588 19.9611 22.0361L16.9539 25.0433C15.9662 26.031 14.2748 25.4672 14.0772 24.0844L13.6792 21.2984C13.4271 21.1736 13.1932 21.0068 12.9888 20.8024L10.7784 18.592C10.574 18.3876 10.4072 18.1537 10.2823 17.9015L7.4963 17.5035C6.11352 17.306 5.54972 15.6146 6.53742 14.6269L9.54463 11.6197C9.9219 11.2424 10.4548 11.0648 10.983 11.1402L12.7883 11.3981C13.4236 10.5086 14.1381 9.64401 14.9111 8.92705C17.3622 6.65369 21.1611 5.85202 23.3916 5.56031ZM8.93464 18.6365C9.22753 18.9294 9.22753 19.4043 8.93464 19.6971L7.5981 21.0337C7.30521 21.3266 6.83033 21.3266 6.53744 21.0337C6.24455 20.7408 6.24455 20.2659 6.53744 19.973L7.87398 18.6365C8.16687 18.3436 8.64175 18.3436 8.93464 18.6365ZM10.9394 20.6413C11.2323 20.9342 11.2323 21.4091 10.9394 21.702L8.26637 24.375C7.97348 24.6679 7.4986 24.6679 7.20571 24.375C6.91282 24.0821 6.91282 23.6073 7.20571 23.3144L9.87879 20.6413C10.1717 20.3484 10.6466 20.3484 10.9394 20.6413ZM12.9443 22.6461C13.2372 22.939 13.2372 23.4139 12.9443 23.7068L11.6077 25.0433C11.3148 25.3362 10.84 25.3362 10.5471 25.0433C10.2542 24.7504 10.2542 24.2755 10.5471 23.9826L11.8836 22.6461C12.1765 22.3532 12.6514 22.3532 12.9443 22.6461ZM17.7596 13.8194C17.0215 13.0813 17.0215 11.8845 17.7596 11.1464C18.4978 10.4082 19.6946 10.4082 20.4327 11.1464C21.1709 11.8845 21.1709 13.0813 20.4327 13.8194C19.6946 14.5576 18.4978 14.5576 17.7596 13.8194Z" fill="#0A85D1"/>
</svg>
