<svg width="32" height="32" viewBox="0 0 32 32" fill="none" xmlns="http://www.w3.org/2000/svg">
    <rect width="32" height="32" rx="5" fill="#E2EEF7"/>
    <path d="M17.2289 7.51063L18.9889 11.0306C19.2289 11.5206 19.8689 11.9906 20.4089 12.0806L23.5989 12.6106C25.6389 12.9506 26.1189 14.4306 24.6489 15.8906L22.1689 18.3706C21.7489 18.7906 21.5189 19.6006 21.6489 20.1806L22.3589 23.2506C22.9189 25.6806 21.6289 26.6206 19.4789 25.3506L16.4889 23.5806C15.9489 23.2606 15.0589 23.2606 14.5089 23.5806L11.5189 25.3506C9.37893 26.6206 8.07893 25.6706 8.63893 23.2506L9.34893 20.1806C9.47893 19.6006 9.24893 18.7906 8.82893 18.3706L6.34893 15.8906C4.88893 14.4306 5.35893 12.9506 7.39893 12.6106L10.5889 12.0806C11.1189 11.9906 11.7589 11.5206 11.9989 11.0306L13.7589 7.51063C14.7189 5.60063 16.2789 5.60063 17.2289 7.51063Z" fill="#0A85D1"/>
</svg>
