<svg width="32" height="32" viewBox="0 0 32 32" fill="none" xmlns="http://www.w3.org/2000/svg">
    <path d="M0 5C0 2.23858 2.23858 0 5 0H27C29.7614 0 32 2.23858 32 5V27C32 29.7614 29.7614 32 27 32H5C2.23858 32 0 29.7614 0 27V5Z" fill="#E2EEF7"/>
    <path fill-rule="evenodd" clip-rule="evenodd" d="M24.3055 22.9195C24.36 22.9267 24.4144 22.9341 24.4688 22.9417L24.7423 22.9801C25.9331 23.1472 26.9986 22.2396 26.9986 21.058V20.1562C26.9986 19.3112 26.4577 18.5573 25.6475 18.2731C24.7115 17.9447 23.7451 17.7309 22.7696 17.6317C23.7875 18.3676 24.4188 19.5593 24.4188 20.8594V21.979C24.4188 22.3042 24.3795 22.619 24.3055 22.9195ZM20.1797 16.432C20.5853 16.5995 21.0309 16.6921 21.4986 16.6921C23.3799 16.6921 24.905 15.194 24.905 13.346C24.905 11.4981 23.3799 10 21.4986 10C21.4428 10 21.3874 10.0013 21.3323 10.0039C21.6744 10.7325 21.8656 11.5461 21.8656 12.4043C21.8656 13.9808 21.2204 15.4066 20.1797 16.432Z" fill="#0A85D1"/>
    <path fill-rule="evenodd" clip-rule="evenodd" d="M8.07338 22.9195C8.01893 22.9267 7.9645 22.9341 7.91009 22.9417L7.63659 22.9801C6.44576 23.1472 5.38035 22.2396 5.38035 21.058V20.1562C5.38035 19.3112 5.92117 18.5573 6.73136 18.2731C7.66742 17.9447 8.63378 17.7309 9.6093 17.6317C8.59142 18.3676 7.96008 19.5593 7.96008 20.8594V21.979C7.96008 22.3042 7.99943 22.619 8.07338 22.9195ZM12.1992 16.432C11.7936 16.5995 11.348 16.6921 10.8804 16.6921C8.99904 16.6921 7.47393 15.194 7.47393 13.346C7.47393 11.4981 8.99904 10 10.8804 10C10.9361 10 10.9915 10.0013 11.0466 10.0039C10.7045 10.7325 10.5133 11.5461 10.5133 12.4043C10.5133 13.9808 11.1585 15.4066 12.1992 16.432Z" fill="#0A85D1"/>
    <path fill-rule="evenodd" clip-rule="evenodd" d="M20.3656 12.4043C20.3656 10.1099 18.5057 8.25 16.2113 8.25C13.917 8.25 12.0571 10.1099 12.0571 12.4043C12.0571 14.6986 13.917 16.5585 16.2113 16.5585C18.5057 16.5585 20.3656 14.6986 20.3656 12.4043Z" fill="#0A85D1"/>
    <path fill-rule="evenodd" clip-rule="evenodd" d="M11.1515 18.5215C14.4235 17.3529 17.9992 17.3529 21.2712 18.5215C22.2592 18.8743 22.9188 19.8103 22.9188 20.8594V21.979C22.9188 23.446 21.6195 24.5729 20.1672 24.3654L19.8337 24.3178C17.431 23.9745 14.9917 23.9745 12.589 24.3178L12.2555 24.3654C10.8032 24.5729 9.50391 23.446 9.50391 21.979V20.8594C9.50391 19.8103 10.1635 18.8743 11.1515 18.5215Z" fill="#0A85D1"/>
</svg>
