<?xml version="1.0" standalone="no"?>
<!DOCTYPE svg PUBLIC "-//W3C//DTD SVG 20010904//EN"
 "http://www.w3.org/TR/2001/REC-SVG-20010904/DTD/svg10.dtd">
<svg version="1.0" xmlns="http://www.w3.org/2000/svg"
 width="700.000000pt" height="700.000000pt" viewBox="0 0 700.000000 700.000000"
 preserveAspectRatio="xMidYMid meet">
<metadata>
Created by potrace 1.14, written by Peter Selinger 2001-2017
</metadata>
<g transform="translate(0.000000,700.000000) scale(0.100000,-0.100000)"
fill="#000000" stroke="none">
<path d="M489 6985 c-65 -16 -199 -74 -199 -86 0 -4 -8 -10 -19 -14 -33 -10
-145 -129 -184 -196 -21 -35 -48 -93 -60 -129 l-22 -65 -2 -2970 c-2 -3276 -6
-3035 63 -3172 86 -170 224 -283 404 -332 74 -20 97 -20 3045 -18 1634 2 2977
5 2985 8 8 3 40 13 70 22 58 17 153 71 214 122 53 43 125 140 158 213 62 136
58 -81 56 3165 l-3 2962 -22 65 c-66 192 -209 337 -405 408 l-73 27 -2975 2
c-2488 1 -2984 -1 -3031 -12z"/>
</g>
</svg>
